<svg viewBox="0 0 800 800" xmlns="http://www.w3.org/2000/svg"><path d="M468.00013256703716,170.92080545104403 L853.2887243678715,392.80025238966016 M853.4145868165729,327.3675055915408 L853.2887243678715,392.80025238966016 M468.01894082764534,105.54990041374765 L853.4145868165729,327.3675055915408 M468.00013256703716,170.92080545104403 L468.01894082764534,105.54990041374765 M864.5911808585104,386.2624268662973 L479.30264476806434,164.40759971121497 M864.5911808585104,386.2624268662973 L853.2887243678715,392.80025238966016 M468.00013256703716,170.92080545104403 L479.30264476806434,164.40759971121497 M864.7201755380752,320.8314989560338 L853.4145868165729,327.3675055915408 M864.5911808585104,386.2624268662973 L864.7201755380752,320.8314989560338 M864.7201755380752,320.8314989560338 L479.32458530593715,99.03851352933759 M468.01894082764534,105.54990041374765 L479.32458530593715,99.03851352933759 M479.30264476806434,164.40759971121497 L479.32458530593715,99.03851352933759" stroke="black"  stroke-width="4"  fill="red"/>
<path d="M-64.6350735175738,477.858114591046 L320.65346075265,700.8993301424398 M320.65346075265,700.8993301424398 L320.6313193702838,635.3810957810617 M-64.76426903960817,412.40172222936377 L320.6313193702838,635.3810957810617 M-64.6350735175738,477.858114591046 L-64.76426903960817,412.40172222936377 M332.0151516931035,694.327240873122 L-53.273438649016725,471.3108387178996 M332.0151516931035,694.327240873122 L320.65346075265,700.8993301424398 M-64.6350735175738,477.858114591046 L-53.273438649016725,471.3108387178996 M331.99617547899595,628.8108253804721 L320.6313193702838,635.3810957810617 M332.0151516931035,694.327240873122 L331.99617547899595,628.8108253804721 M331.99617547899595,628.8108253804721 L-53.399469049595496,405.856265246261 M-64.76426903960817,412.40172222936377 L-53.399469049595496,405.856265246261 M-53.399469049595496,405.856265246261 L-53.273438649016725,471.3108387178996" stroke="black"  stroke-width="4"  fill="red"/>
<path d="M864.5911808585104,386.2624268662973 L864.7201755380752,320.8314989560338 M320.65346075265,700.8993301424398 L320.6313193702838,635.3810957810617 M864.5911808585104,386.2624268662973 L320.65346075265,700.8993301424398 M864.7201755380752,320.8314989560338 L320.6313193702838,635.3810957810617 M332.00756247550027,707.4721513517586 L331.98858203376966,641.9520981228757 M320.65346075265,700.8993301424398 L332.00756247550027,707.4721513517586 M320.6313193702838,635.3810957810617 L331.98858203376966,641.9520981228757 M875.9452237586022,392.80025238966016 L876.0773793297385,327.3675055915408 M332.00756247550027,707.4721513517586 L875.9452237586022,392.80025238966016 M331.98858203376966,641.9520981228757 L876.0773793297385,327.3675055915408 M875.9452237586022,392.80025238966016 L864.5911808585104,386.2624268662973 M876.0773793297385,327.3675055915408 L864.7201755380752,320.8314989560338" stroke="black"  stroke-width="4"  fill="red"/>
<path d="M467.99261218171245,157.8951159762346 L468.0114162720902,92.52784864824133 M-75.94504740913067,471.3108387178996 L-76.07737932973845,405.856265246261 M467.99261218171245,157.8951159762346 L-75.94504740913067,471.3108387178996 M468.0114162720902,92.52784864824133 L-76.07737932973845,405.856265246261 M-64.6350735175738,477.858114591046 L-64.76426903960817,412.40172222936377 M-75.94504740913067,471.3108387178996 L-64.6350735175738,477.858114591046 M-76.07737932973845,405.856265246261 L-64.76426903960817,412.40172222936377 M479.30264476806434,164.40759971121497 L479.32458530593715,99.03851352933759 M-64.6350735175738,477.858114591046 L479.30264476806434,164.40759971121497 M-64.76426903960817,412.40172222936377 L479.32458530593715,99.03851352933759 M479.30264476806434,164.40759971121497 L467.99261218171245,157.8951159762346 M479.32458530593715,99.03851352933759 L468.0114162720902,92.52784864824133" stroke="black"  stroke-width="4"  fill="red"/></svg>