<svg viewBox="0 0 800 800" xmlns="http://www.w3.org/2000/svg"><path d="M468.00013256703716,170.92080545104403 L853.2887243678715,392.80025238966016 M853.3013074671417,386.2586130288374 L853.2887243678715,392.80025238966016 M853.3013074671417,386.2586130288374 L468.00201292392103,164.3853456414726 M468.00013256703716,170.92080545104403 L468.00201292392103,164.3853456414726 M864.5911808585104,386.2624268662973 L479.30264476806434,164.40759971121497 M864.5911808585104,386.2624268662973 L853.2887243678715,392.80025238966016 M468.00013256703716,170.92080545104403 L479.30264476806434,164.40759971121497 M858.9528492155541,382.98970037306054 L853.3013074671417,386.2586130288374 M858.9655896035651,376.4477885801471 L858.9528492155541,382.98970037306054 M858.9655896035651,376.4477885801471 L853.3138912652787,379.7166103445288 M853.4145868165729,327.3675055915408 L853.3138912652787,379.7166103445288 M864.7201755380752,320.8314989560338 L853.4145868165729,327.3675055915408 M864.5911808585104,386.2624268662973 L864.7201755380752,320.8314989560338 M858.9528492155541,382.98970037306054 L473.65358223485157,161.12874338835604 M468.00201292392103,164.3853456414726 L473.65358223485157,161.12874338835604 M479.30264476806434,164.40759971121497 L479.32458530593715,99.03851352933759 M468.01894082764534,105.54990041374765 L479.32458530593715,99.03851352933759 M468.00389338504334,157.84952353577563 L468.01894082764534,105.54990041374765 M468.00389338504334,157.84952353577563 L473.6556192881425,154.59301217264635 M473.65358223485157,161.12874338835604 L473.6556192881425,154.59301217264635 M864.7201755380752,320.8314989560338 L479.32458530593715,99.03851352933759 M858.9655896035651,376.4477885801471 L473.6556192881425,154.59301217264635 M468.00389338504334,157.84952353577563 L853.3138912652787,379.7166103445288 M468.01894082764534,105.54990041374765 L853.4145868165729,327.3675055915408" stroke="black"  stroke-width="4"  fill="red"/>
<path d="M-64.6350735175738,477.858114591046 L320.65346075265,700.8993301424398 M320.65346075265,700.8993301424398 L320.6313193702838,635.3810957810617 M-64.76426903960817,412.40172222936377 L320.6313193702838,635.3810957810617 M-64.6350735175738,477.858114591046 L-64.76426903960817,412.40172222936377 M332.0151516931035,694.327240873122 L-53.273438649016725,471.3108387178996 M332.0151516931035,694.327240873122 L320.65346075265,700.8993301424398 M-64.6350735175738,477.858114591046 L-53.273438649016725,471.3108387178996 M331.99617547899595,628.8108253804721 L320.6313193702838,635.3810957810617 M332.01135729559473,681.2268762629485 L331.99617547899595,628.8108253804721 M332.01135729559473,681.2268762629485 L326.3303535538011,684.512647647615 M326.33240902412234,691.063103202694 L326.3303535538011,684.512647647615 M332.01325454716795,687.7772409278532 L326.33240902412234,691.063103202694 M332.0151516931035,694.327240873122 L332.01325454716795,687.7772409278532 M331.99617547899595,628.8108253804721 L-53.399469049595496,405.856265246261 M-64.76426903960817,412.40172222936377 L-53.399469049595496,405.856265246261 M-53.28603853717641,464.76701832619534 L-53.273438649016725,471.3108387178996 M-58.96685632158807,468.040474419263 L-53.28603853717641,464.76701832619534 M-58.9796151264477,461.496199449121 L-58.96685632158807,468.040474419263 M-58.9796151264477,461.496199449121 L-53.29863912560222,458.2228342474799 M-53.399469049595496,405.856265246261 L-53.29863912560222,458.2228342474799 M-53.28603853717641,464.76701832619534 L332.01325454716795,687.7772409278532 M332.01135729559473,681.2268762629485 L-53.29863912560222,458.2228342474799 M-58.9796151264477,461.496199449121 L326.3303535538011,684.512647647615 M-58.96685632158807,468.040474419263 L326.33240902412234,691.063103202694" stroke="black"  stroke-width="4"  fill="red"/>
<path d="M864.5911808585104,386.2624268662973 L320.65346075265,700.8993301424398 M864.5911808585104,386.2624268662973 L864.7201755380752,320.8314989560338 M864.7201755380752,320.8314989560338 L320.6313193702838,635.3810957810617 M320.65346075265,700.8993301424398 L320.6313193702838,635.3810957810617 M326.33240902412234,691.063103202694 L858.9528492155541,382.98970037306054 M326.33240902412234,691.063103202694 L326.3303535538011,684.512647647615 M858.9655896035651,376.4477885801471 L326.3303535538011,684.512647647615 M858.9655896035651,376.4477885801471 L858.9528492155541,382.98970037306054 M320.65346075265,700.8993301424398 L332.00756247550027,707.4721513517586 M332.00756247550027,707.4721513517586 L875.9452237586022,392.80025238966016 M875.9452237586022,392.80025238966016 L864.5911808585104,386.2624268662973 M864.6298717399886,386.2586130288374 L858.9528492155541,382.98970037306054 M326.33240902412234,691.063103202694 L332.0094599383751,694.3491484472861 M332.0094599383751,694.3491484472861 L864.6298717399886,386.2586130288374 M864.642770133079,379.7166103445288 L858.9655896035651,376.4477885801471 M864.6298717399886,386.2586130288374 L864.642770133079,379.7166103445288 M332.0075624755002,687.7986020020658 L864.642770133079,379.7166103445288 M326.3303535538011,684.512647647615 L332.0075624755002,687.7986020020658 M332.0094599383751,694.3491484472861 L332.0075624755002,687.7986020020658 M332.00756247550027,707.4721513517586 L331.98858203376966,641.9520981228757 M320.6313193702838,635.3810957810617 L331.98858203376966,641.9520981228757 M875.9452237586022,392.80025238966016 L876.0773793297385,327.3675055915408 M876.0773793297385,327.3675055915408 L864.7201755380752,320.8314989560338 M331.98858203376966,641.9520981228757 L876.0773793297385,327.3675055915408" stroke="black"  stroke-width="4"  fill="red"/>
<path d="M467.99261218171245,157.8951159762346 L468.0114162720902,92.52784864824133 M-75.94504740913067,471.3108387178996 L-76.07737932973845,405.856265246261 M467.99261218171245,157.8951159762346 L-75.94504740913067,471.3108387178996 M468.0114162720902,92.52784864824133 L-76.07737932973845,405.856265246261 M479.30264476806434,164.40759971121497 L479.32458530593715,99.03851352933759 M479.30264476806434,164.40759971121497 L467.99261218171245,157.8951159762346 M479.32458530593715,99.03851352933759 L468.0114162720902,92.52784864824133 M-64.6350735175738,477.858114591046 L-64.76426903960817,412.40172222936377 M-75.94504740913067,471.3108387178996 L-64.6350735175738,477.858114591046 M-76.07737932973845,405.856265246261 L-64.76426903960817,412.40172222936377 M479.30264476806434,164.40759971121497 L-64.6350735175738,477.858114591046 M-64.76426903960817,412.40172222936377 L479.32458530593715,99.03851352933759 M473.65358223485157,161.12874338835604 L-58.96685632158807,468.040474419263 M473.65358223485157,161.12874338835604 L473.6556192881425,154.59301217264635 M-58.9796151264477,461.496199449121 L473.6556192881425,154.59301217264635 M-58.9796151264477,461.496199449121 L-58.96685632158807,468.040474419263 M473.65358223485157,161.12874338835604 L467.998252314383,157.87232165142532 M467.998252314383,157.87232165142532 L-64.62215791443737,464.76701832619534 M-64.62215791443737,464.76701832619534 L-58.96685632158807,468.040474419263 M-64.6350735175738,458.2228342474799 L-58.9796151264477,461.496199449121 M-64.62215791443737,464.76701832619534 L-64.6350735175738,458.2228342474799 M473.6556192881425,154.59301217264635 L468.00013256703716,151.336681325668 M468.00013256703716,151.336681325668 L-64.6350735175738,458.2228342474799 M467.998252314383,157.87232165142532 L468.00013256703716,151.336681325668" stroke="black"  stroke-width="4"  fill="red"/>
<path d="M467.998252314383,157.87232165142532 L-64.62215791443737,464.76701832619534 M-64.62215791443737,464.76701832619534 L-64.6350735175738,458.2228342474799 M468.00013256703716,151.336681325668 L-64.6350735175738,458.2228342474799 M467.998252314383,157.87232165142532 L468.00013256703716,151.336681325668 M-64.62215791443737,464.76701832619534 L332.0094599383751,694.3491484472861 M332.0094599383751,694.3491484472861 L332.0075624755002,687.7986020020658 M-64.6350735175738,458.2228342474799 L332.0075624755002,687.7986020020658 M864.6298717399886,386.2586130288374 L467.998252314383,157.87232165142532 M864.642770133079,379.7166103445288 L468.00013256703716,151.336681325668 M864.6298717399886,386.2586130288374 L864.642770133079,379.7166103445288 M332.0094599383751,694.3491484472861 L864.6298717399886,386.2586130288374 M332.0075624755002,687.7986020020658 L864.642770133079,379.7166103445288 M853.2887243678715,392.80025238966016 L853.3013074671417,386.2586130288374 M468.00013256703716,170.92080545104403 L468.00201292392103,164.3853456414726 M853.2887243678715,392.80025238966016 L468.00013256703716,170.92080545104403 M853.3013074671417,386.2586130288374 L468.00201292392103,164.3853456414726 M332.0151516931035,694.327240873122 L332.01325454716795,687.7772409278532 M332.0151516931035,694.327240873122 L853.2887243678715,392.80025238966016 M332.01325454716795,687.7772409278532 L853.3013074671417,386.2586130288374 M-53.273438649016725,471.3108387178996 L-53.28603853717641,464.76701832619534 M-53.273438649016725,471.3108387178996 L332.0151516931035,694.327240873122 M-53.28603853717641,464.76701832619534 L332.01325454716795,687.7772409278532 M468.00013256703716,170.92080545104403 L-53.273438649016725,471.3108387178996 M468.00201292392103,164.3853456414726 L-53.28603853717641,464.76701832619534" stroke="black"  stroke-width="4"  fill="red"/></svg>