<svg viewBox="0 0 800 800" xmlns="http://www.w3.org/2000/svg"><path d="M853.2887243678715,392.80025238966016 L332.0151516931035,694.327240873122 M332.01325454716795,687.7772409278532 L332.0151516931035,694.327240873122 M332.01325454716795,687.7772409278532 L853.3013074671417,386.2586130288374 M853.2887243678715,392.80025238966016 L853.3013074671417,386.2586130288374 M853.2887243678715,392.80025238966016 L864.642770133079,399.3388041363525 M343.3692538385396,700.8993301424398 L864.642770133079,399.3388041363525 M343.3692538385396,700.8993301424398 L332.0151516931035,694.327240873122 M337.6903055670671,691.063103202694 L332.01325454716795,687.7772409278532 M337.68856632294916,684.512647647615 L337.6903055670671,691.063103202694 M337.68856632294916,684.512647647615 L332.01135729559473,681.2268762629485 M331.99617547899595,628.8108253804721 L332.01135729559473,681.2268762629485 M343.35343856542084,635.3810957810617 L331.99617547899595,628.8108253804721 M343.3692538385396,700.8993301424398 L343.35343856542084,635.3810957810617 M337.6903055670671,691.063103202694 L858.978330699179,389.52770724044063 M853.3013074671417,386.2586130288374 L858.978330699179,389.52770724044063 M864.642770133079,399.3388041363525 L864.7717934757402,333.90423845000726 M853.4145868165729,327.3675055915408 L864.7717934757402,333.90423845000726 M853.3138912652787,379.7166103445288 L853.4145868165729,327.3675055915408 M853.3138912652787,379.7166103445288 L858.9910725024545,382.9856136647307 M858.978330699179,389.52770724044063 L858.9910725024545,382.9856136647307 M343.35343856542084,635.3810957810617 L864.7717934757402,333.90423845000726 M337.68856632294916,684.512647647615 L858.9910725024545,382.9856136647307 M853.3138912652787,379.7166103445288 L332.01135729559473,681.2268762629485 M853.4145868165729,327.3675055915408 L331.99617547899595,628.8108253804721" stroke="black"  stroke-width="4"  fill="red"/>
<path d="M456.69009956383553,164.40759971121497 L-64.58341541142534,464.7642905219828 M-64.58341541142534,464.7642905219828 L-64.71258221297188,399.31153594042155 M456.7057713766019,99.03851352933759 L-64.71258221297188,399.31153594042155 M456.69009956383553,164.40759971121497 L456.7057713766019,99.03851352933759 M456.69009956383553,164.40759971121497 L468.00013256703716,170.92080545104403 M-53.273438649016725,471.3108387178996 L468.00013256703716,170.92080545104403 M-53.273438649016725,471.3108387178996 L-64.58341541142534,464.7642905219828 M-53.399469049595496,405.856265246261 L-64.71258221297188,399.31153594042155 M-53.29863912560222,458.2228342474799 L-53.399469049595496,405.856265246261 M-53.29863912560222,458.2228342474799 L-58.95409822580689,454.9496509651543 M-58.94134083904521,461.4937441524393 L-58.95409822580689,454.9496509651543 M-53.28603853717641,464.76701832619534 L-58.94134083904521,461.4937441524393 M-53.273438649016725,471.3108387178996 L-53.28603853717641,464.76701832619534 M456.7057713766019,99.03851352933759 L468.01894082764534,105.54990041374765 M-53.399469049595496,405.856265246261 L468.01894082764534,105.54990041374765 M468.00201292392103,164.3853456414726 L468.00013256703716,170.92080545104403 M462.34668289922274,161.12874338835604 L468.00201292392103,164.3853456414726 M462.3484065596996,154.59301217264635 L462.34668289922274,161.12874338835604 M462.3484065596996,154.59301217264635 L468.00389338504334,157.84952353577563 M468.01894082764534,105.54990041374765 L468.00389338504334,157.84952353577563 M468.00201292392103,164.3853456414726 L-53.28603853717641,464.76701832619534 M-53.29863912560222,458.2228342474799 L468.00389338504334,157.84952353577563 M462.3484065596996,154.59301217264635 L-58.95409822580689,454.9496509651543 M462.34668289922274,161.12874338835604 L-58.94134083904521,461.4937441524393" stroke="black"  stroke-width="4"  fill="red"/>
<path d="M456.69009956383553,164.40759971121497 L864.642770133079,399.3388041363525 M456.69009956383553,164.40759971121497 L456.7057713766019,99.03851352933759 M456.7057713766019,99.03851352933759 L864.7717934757402,333.90423845000726 M864.642770133079,399.3388041363525 L864.7717934757402,333.90423845000726 M858.978330699179,389.52770724044063 L462.34668289922274,161.12874338835604 M858.978330699179,389.52770724044063 L858.9910725024545,382.9856136647307 M462.3484065596996,154.59301217264635 L858.9910725024545,382.9856136647307 M462.3484065596996,154.59301217264635 L462.34668289922274,161.12874338835604 M864.642770133079,399.3388041363525 L875.9452237586022,392.80025238966016 M875.9452237586022,392.80025238966016 L467.99261218171245,157.8951159762346 M467.99261218171245,157.8951159762346 L456.69009956383553,164.40759971121497 M864.6298717399886,386.2586130288374 L467.998252314383,157.87232165142532 M467.998252314383,157.87232165142532 L462.34668289922274,161.12874338835604 M858.978330699179,389.52770724044063 L864.6298717399886,386.2586130288374 M468.00013256703716,151.336681325668 L462.3484065596996,154.59301217264635 M467.998252314383,157.87232165142532 L468.00013256703716,151.336681325668 M864.642770133079,379.7166103445288 L468.00013256703716,151.336681325668 M858.9910725024545,382.9856136647307 L864.642770133079,379.7166103445288 M864.6298717399886,386.2586130288374 L864.642770133079,379.7166103445288 M875.9452237586022,392.80025238966016 L876.0773793297385,327.3675055915408 M864.7717934757402,333.90423845000726 L876.0773793297385,327.3675055915408 M467.99261218171245,157.8951159762346 L468.0114162720902,92.52784864824133 M468.0114162720902,92.52784864824133 L456.7057713766019,99.03851352933759 M876.0773793297385,327.3675055915408 L468.0114162720902,92.52784864824133" stroke="black"  stroke-width="4"  fill="red"/>
<path d="M-75.94504740913067,471.3108387178996 L-76.07737932973845,405.856265246261 M332.00756247550027,707.4721513517586 L331.98858203376966,641.9520981228757 M-75.94504740913067,471.3108387178996 L332.00756247550027,707.4721513517586 M-76.07737932973845,405.856265246261 L331.98858203376966,641.9520981228757 M-64.58341541142534,464.7642905219828 L-64.71258221297188,399.31153594042155 M-64.58341541142534,464.7642905219828 L-75.94504740913067,471.3108387178996 M-64.71258221297188,399.31153594042155 L-76.07737932973845,405.856265246261 M343.3692538385396,700.8993301424398 L343.35343856542084,635.3810957810617 M332.00756247550027,707.4721513517586 L343.3692538385396,700.8993301424398 M331.98858203376966,641.9520981228757 L343.35343856542084,635.3810957810617 M-64.58341541142534,464.7642905219828 L343.3692538385396,700.8993301424398 M343.35343856542084,635.3810957810617 L-64.71258221297188,399.31153594042155 M-58.94134083904521,461.4937441524393 L337.6903055670671,691.063103202694 M-58.94134083904521,461.4937441524393 L-58.95409822580689,454.9496509651543 M337.68856632294916,684.512647647615 L-58.95409822580689,454.9496509651543 M337.68856632294916,684.512647647615 L337.6903055670671,691.063103202694 M-58.94134083904521,461.4937441524393 L-64.62215791443737,464.76701832619534 M-64.62215791443737,464.76701832619534 L332.0094599383751,694.3491484472861 M332.0094599383751,694.3491484472861 L337.6903055670671,691.063103202694 M332.0075624755002,687.7986020020658 L337.68856632294916,684.512647647615 M332.0094599383751,694.3491484472861 L332.0075624755002,687.7986020020658 M-64.6350735175738,458.2228342474799 L332.0075624755002,687.7986020020658 M-58.95409822580689,454.9496509651543 L-64.6350735175738,458.2228342474799 M-64.62215791443737,464.76701832619534 L-64.6350735175738,458.2228342474799" stroke="black"  stroke-width="4"  fill="red"/>
<path d="M467.998252314383,157.87232165142532 L468.00013256703716,151.336681325668 M-64.62215791443737,464.76701832619534 L-64.6350735175738,458.2228342474799 M467.998252314383,157.87232165142532 L-64.62215791443737,464.76701832619534 M468.00013256703716,151.336681325668 L-64.6350735175738,458.2228342474799 M864.6298717399886,386.2586130288374 L864.642770133079,379.7166103445288 M864.6298717399886,386.2586130288374 L467.998252314383,157.87232165142532 M864.642770133079,379.7166103445288 L468.00013256703716,151.336681325668 M332.0094599383751,694.3491484472861 L332.0075624755002,687.7986020020658 M-64.62215791443737,464.76701832619534 L332.0094599383751,694.3491484472861 M-64.6350735175738,458.2228342474799 L332.0075624755002,687.7986020020658 M332.0094599383751,694.3491484472861 L864.6298717399886,386.2586130288374 M468.00201292392103,164.3853456414726 L-53.28603853717641,464.76701832619534 M-53.28603853717641,464.76701832619534 L332.01325454716795,687.7772409278532 M332.01325454716795,687.7772409278532 L853.3013074671417,386.2586130288374 M853.3013074671417,386.2586130288374 L468.00201292392103,164.3853456414726 M332.0075624755002,687.7986020020658 L864.642770133079,379.7166103445288 M468.00201292392103,164.3853456414726 L468.00013256703716,170.92080545104403 M-53.28603853717641,464.76701832619534 L-53.273438649016725,471.3108387178996 M468.00013256703716,170.92080545104403 L-53.273438649016725,471.3108387178996 M332.01325454716795,687.7772409278532 L332.0151516931035,694.327240873122 M-53.273438649016725,471.3108387178996 L332.0151516931035,694.327240873122 M853.3013074671417,386.2586130288374 L853.2887243678715,392.80025238966016 M332.0151516931035,694.327240873122 L853.2887243678715,392.80025238966016 M853.2887243678715,392.80025238966016 L468.00013256703716,170.92080545104403" stroke="black"  stroke-width="4"  fill="red"/></svg>